<svg width="12" height="22" viewBox="0 0 12 22" fill="none" xmlns="http://www.w3.org/2000/svg">
<path d="M4.12514 6.78125H1.96889C1.46889 6.78125 1.12514 6.54688 0.937644 6.07812C0.750144 5.60938 0.828269 5.20312 1.17202 4.85938L5.20327 0.828125C5.42202 0.609375 5.68764 0.5 6.00014 0.5C6.31264 0.5 6.57827 0.609375 6.79702 0.828125L10.8283 4.85938C11.172 5.20312 11.2501 5.60938 11.0626 6.07812C10.8751 6.54688 10.5314 6.78125 10.0314 6.78125H7.87514V20.9375C7.87514 21.3125 7.68764 21.5 7.31264 21.5H4.68764C4.31264 21.5 4.12514 21.3125 4.12514 20.9375V6.78125Z" fill="#FEFDFB"/>
</svg>
