<svg width="13" height="7" viewBox="0 0 13 7" fill="none" xmlns="http://www.w3.org/2000/svg">
<path d="M4.06641 4.84375V6.10156C4.06641 6.39323 3.92969 6.59375 3.65625 6.70312C3.38281 6.8125 3.14583 6.76692 2.94531 6.5664L0.59375 4.21484C0.466146 4.08724 0.402344 3.93229 0.402344 3.75C0.402344 3.56771 0.466146 3.41276 0.59375 3.28515L2.94531 0.933591C3.14583 0.73307 3.38281 0.687497 3.65625 0.796872C3.92969 0.906247 4.06641 1.10677 4.06641 1.39843V2.65625H12.3242C12.543 2.65625 12.6523 2.76562 12.6523 2.98437V4.51562C12.6523 4.73437 12.543 4.84375 12.3242 4.84375H4.06641Z" fill="#333333"/>
</svg>
