<svg width="12" height="9" viewBox="0 0 12 9" fill="none" xmlns="http://www.w3.org/2000/svg">
<path d="M11.1895 2.50444C11.1895 2.33703 11.1226 2.16962 11.002 2.04908L10.0913 1.13837C9.97077 1.01783 9.80336 0.950867 9.63595 0.950867C9.46854 0.950867 9.30113 1.01783 9.18059 1.13837L4.78774 5.53792L2.81899 3.56247C2.69845 3.44194 2.53104 3.37497 2.36363 3.37497C2.19622 3.37497 2.02881 3.44194 1.90827 3.56247L0.997559 4.47319C0.877023 4.59372 0.810059 4.76114 0.810059 4.92855C0.810059 5.09596 0.877023 5.26337 0.997559 5.3839L3.42167 7.80801L4.33238 8.71872C4.45292 8.83926 4.62033 8.90622 4.78774 8.90622C4.95515 8.90622 5.12256 8.83926 5.24309 8.71872L6.15381 7.80801L11.002 2.9598C11.1226 2.83926 11.1895 2.67185 11.1895 2.50444Z" fill="#ABA18A"/>
</svg>
