<svg width="16" height="13" viewBox="0 0 16 13" fill="none" xmlns="http://www.w3.org/2000/svg">
<path d="M15.7845 3.25663C15.7845 3.00551 15.6841 2.75439 15.5033 2.57359L14.1372 1.20752C13.9564 1.02672 13.7053 0.92627 13.4542 0.92627C13.2031 0.92627 12.9519 1.02672 12.7711 1.20752L6.18185 7.80685L3.22873 4.84368C3.04792 4.66288 2.79681 4.56243 2.54569 4.56243C2.29457 4.56243 2.04346 4.66288 1.86265 4.84368L0.496582 6.20975C0.315778 6.39055 0.215332 6.64167 0.215332 6.89279C0.215332 7.1439 0.315778 7.39502 0.496582 7.57582L4.13274 11.212L5.49881 12.5781C5.67962 12.7589 5.93073 12.8593 6.18185 12.8593C6.43297 12.8593 6.68408 12.7589 6.86489 12.5781L8.23096 11.212L15.5033 3.93966C15.6841 3.75886 15.7845 3.50774 15.7845 3.25663Z" fill="#E33253"/>
</svg>
